<svg width="30" height="26" viewBox="0 0 30 26" fill="none" xmlns="http://www.w3.org/2000/svg">
<path d="M17.1429 0C10.0429 0 4.28571 5.82111 4.28571 13H0L5.55714 18.6189L5.65714 18.8211L11.4286 13H7.14286C7.14286 7.41 11.6143 2.88889 17.1429 2.88889C22.6714 2.88889 27.1429 7.41 27.1429 13C27.1429 18.59 22.6714 23.1111 17.1429 23.1111C14.3857 23.1111 11.8857 21.97 10.0857 20.1356L8.05714 22.1867C10.3857 24.5411 13.5857 26 17.1429 26C24.2429 26 30 20.1789 30 13C30 5.82111 24.2429 0 17.1429 0ZM15.7143 7.22222V14.4444L21.8286 18.1133L22.8571 16.3656L17.8571 13.3611V7.22222H15.7143Z" fill="black"/>
</svg>
