<svg width="30" height="30" viewBox="0 0 30 30" fill="none" xmlns="http://www.w3.org/2000/svg">
<path d="M14.5833 0C6.53333 0 0 6.53333 0 14.5833C0 22.6333 6.53333 29.1667 14.5833 29.1667C22.6333 29.1667 29.1667 22.6333 29.1667 14.5833C29.1667 6.53333 22.6333 0 14.5833 0V0ZM19.8479 9.24583C21.4083 9.24583 22.6625 10.5 22.6625 12.0604C22.6625 13.6208 21.4083 14.875 19.8479 14.875C18.2875 14.875 17.0333 13.6208 17.0333 12.0604C17.0187 10.5 18.2875 9.24583 19.8479 9.24583V9.24583ZM11.0979 6.94167C12.9938 6.94167 14.5396 8.4875 14.5396 10.3833C14.5396 12.2792 12.9938 13.825 11.0979 13.825C9.20208 13.825 7.65625 12.2792 7.65625 10.3833C7.65625 8.47292 9.1875 6.94167 11.0979 6.94167ZM11.0979 20.2562V25.725C7.59792 24.6312 4.82708 21.9333 3.60208 18.4917C5.13333 16.8583 8.95417 16.0271 11.0979 16.0271C11.8708 16.0271 12.8479 16.1437 13.8687 16.3479C11.4771 17.6167 11.0979 19.2937 11.0979 20.2562ZM14.5833 26.25C14.1896 26.25 13.8104 26.2354 13.4312 26.1917V20.2562C13.4312 18.1854 17.7187 17.15 19.8479 17.15C21.4083 17.15 24.1062 17.7187 25.4479 18.8271C23.7417 23.1583 19.5271 26.25 14.5833 26.25V26.25Z" fill="black"/>
</svg>
